# Blender 5.1.2
# www.blender.org
mtllib D.mtl
o Text
v -0.043026 -0.100000 0.695294
v 0.302732 -0.100000 0.347647
v -0.042074 -0.100000 -0.000000
v -0.295440 -0.100000 -0.000000
v -0.295440 -0.100000 0.695294
v -0.053504 -0.100000 0.089715
v 0.206530 -0.100000 0.347647
v -0.058266 -0.100000 0.605578
v -0.202094 -0.100000 0.605578
v -0.202094 -0.100000 0.089715
v -0.043026 0.100000 0.695294
v 0.302732 0.100000 0.347647
v -0.042074 0.100000 0.000000
v -0.295440 0.100000 0.000000
v -0.295440 0.100000 0.695294
v -0.053504 0.100000 0.089715
v 0.206530 0.100000 0.347647
v -0.058266 0.100000 0.605578
v -0.202094 0.100000 0.605578
v -0.202094 0.100000 0.089715
v -0.043026 0.100000 0.695294
v -0.043026 -0.100000 0.695294
v 0.302732 0.100000 0.347647
v 0.302732 -0.100000 0.347647
v -0.042074 0.100000 0.000000
v -0.042074 -0.100000 -0.000000
v -0.295440 0.100000 0.000000
v -0.295440 -0.100000 -0.000000
v -0.295440 0.100000 0.695294
v -0.295440 -0.100000 0.695294
v -0.053504 0.100000 0.089715
v -0.053504 -0.100000 0.089715
v 0.206530 0.100000 0.347647
v 0.206530 -0.100000 0.347647
v -0.058266 0.100000 0.605578
v -0.058266 -0.100000 0.605578
v -0.202094 0.100000 0.605578
v -0.202094 -0.100000 0.605578
v -0.202094 0.100000 0.089715
v -0.202094 -0.100000 0.089715
vn -0.0000 -1.0000 -0.0000
vn -0.0000 1.0000 -0.0000
vn 1.0000 -0.0000 0.0006
vn 0.3903 -0.0000 0.9207
vn 0.3909 -0.0000 -0.9204
vn 1.0000 -0.0000 0.0007
vn -0.7307 -0.0000 -0.6827
vn -0.7307 -0.0000 0.6827
vn -1.0000 -0.0000 -0.0042
vn -0.3870 -0.0000 0.9221
vn -0.3826 -0.0000 -0.9239
vn 0.7307 -0.0000 -0.6827
vn 0.7307 -0.0000 0.6827
vt 0.444444 0.000000
vt 0.333333 0.000000
vt 1.000000 0.000000
vt 0.888889 0.000000
vt 0.666667 0.000000
vt 0.222222 0.000000
vt 0.111111 0.000000
vt 0.555556 0.000000
vt 0.000000 0.000000
vt 0.777778 0.000000
vt 0.200000 1.000000
vt 0.000000 1.000000
vt 0.400000 1.000000
vt 0.200000 0.000000
vt 0.600000 1.000000
vt 0.400000 0.000000
vt 0.800000 1.000000
vt 0.600000 0.000000
vt 1.000000 1.000000
vt 0.800000 0.000000
s 0
f 5/1/1 4/2/1 10/3/1
f 10/3/1 9/4/1 5/1/1
f 7/5/1 3/6/1 2/7/1
f 3/6/1 7/5/1 6/8/1
f 7/5/1 2/7/1 1/9/1
f 10/3/1 4/2/1 3/6/1
f 3/6/1 6/8/1 10/3/1
f 7/5/1 1/9/1 8/10/1
f 9/4/1 8/10/1 1/9/1
f 5/1/1 9/4/1 1/9/1
f 15/1/2 20/3/2 14/2/2
f 20/3/2 15/1/2 19/4/2
f 17/5/2 12/7/2 13/6/2
f 13/6/2 16/8/2 17/5/2
f 17/5/2 11/9/2 12/7/2
f 20/3/2 13/6/2 14/2/2
f 13/6/2 20/3/2 16/8/2
f 17/5/2 18/10/2 11/9/2
f 19/4/2 11/9/2 18/10/2
f 15/1/2 11/9/2 19/4/2
s 1
f 24/11/3 21/9/4 22/12/4
f 26/13/5 23/14/6 24/11/3
f 28/15/7 25/16/5 26/13/5
f 30/17/8 27/18/7 28/15/7
f 22/19/4 29/20/8 30/17/8
f 34/11/9 31/9/10 32/12/10
f 36/13/11 33/14/9 34/11/9
f 38/15/12 35/16/11 36/13/11
f 40/17/13 37/18/12 38/15/12
f 32/19/10 39/20/13 40/17/13
f 24/11/3 23/14/6 21/9/4
f 26/13/5 25/16/5 23/14/6
f 28/15/7 27/18/7 25/16/5
f 30/17/8 29/20/8 27/18/7
f 22/19/4 21/3/4 29/20/8
f 34/11/9 33/14/9 31/9/10
f 36/13/11 35/16/11 33/14/9
f 38/15/12 37/18/12 35/16/11
f 40/17/13 39/20/13 37/18/12
f 32/19/10 31/3/10 39/20/13
